<svg width="503" height="206" viewBox="0 0 503 206" fill="none" xmlns="http://www.w3.org/2000/svg">
<path d="M121.445 190.285C120.104 190.285 118.964 189.883 118.025 189.078C117.22 188.139 116.818 186.999 116.818 185.657V156.684H51.6277C50.2863 156.684 49.1462 156.282 48.2072 155.477C47.4024 154.538 47 153.398 47 152.056V144.008C47 141.996 47.7377 139.984 49.2132 137.972L109.574 52.8627C110.245 51.7896 111.251 50.9848 112.592 50.4482C113.934 49.7775 115.409 49.4422 117.019 49.4422H131.506C132.847 49.4422 133.92 49.9117 134.725 50.8506C135.664 51.6554 136.133 52.7285 136.133 54.0699V139.179H154.242C155.583 139.179 156.723 139.649 157.662 140.588C158.601 141.392 159.071 142.466 159.071 143.807V152.056C159.071 153.398 158.601 154.538 157.662 155.477C156.857 156.282 155.784 156.684 154.443 156.684H136.133V185.657C136.133 186.999 135.664 188.139 134.725 189.078C133.92 189.883 132.847 190.285 131.506 190.285H121.445ZM117.019 139.582V70.5686L68.5288 139.582H117.019Z" fill="#B3BCCB"/>
<path d="M417.375 190.285C416.034 190.285 414.893 189.883 413.954 189.078C413.15 188.139 412.747 186.999 412.747 185.657V156.684H347.557C346.216 156.684 345.076 156.282 344.137 155.477C343.332 154.538 342.929 153.398 342.929 152.056V144.008C342.929 141.996 343.667 139.984 345.143 137.972L405.504 52.8627C406.174 51.7896 407.181 50.9848 408.522 50.4482C409.863 49.7775 411.339 49.4422 412.948 49.4422H427.435C428.776 49.4422 429.85 49.9117 430.654 50.8506C431.593 51.6554 432.063 52.7285 432.063 54.0699V139.179H450.171C451.512 139.179 452.653 139.649 453.592 140.588C454.531 141.392 455 142.466 455 143.807V152.056C455 153.398 454.531 154.538 453.592 155.477C452.787 156.282 451.714 156.684 450.372 156.684H432.063V185.657C432.063 186.999 431.593 188.139 430.654 189.078C429.85 189.883 428.776 190.285 427.435 190.285H417.375ZM412.948 139.582V70.5686L364.458 139.582H412.948Z" fill="#B3BCCB"/>
<path d="M317.913 97.4178L300.869 103.293C306.901 121.452 302.82 142.337 288.612 156.772C268.649 177.053 236.18 177.053 216.218 156.772C196.255 136.49 196.255 103.504 216.218 83.2224C230.412 68.802 250.914 64.6558 268.76 70.7275L274.515 53.3979C250.402 45.1757 222.706 50.7977 203.49 70.32C176.472 97.7692 176.472 142.253 203.49 169.702C230.508 197.151 274.294 197.151 301.312 169.702C320.569 150.152 326.089 121.944 317.913 97.4178Z" fill="#B3BCCB"/>
<path d="M297.963 84.7533C305.157 84.7533 310.988 78.8286 310.988 71.5201C310.988 64.2116 305.157 58.2869 297.963 58.2869C290.769 58.2869 284.938 64.2116 284.938 71.5201C284.938 78.8286 290.769 84.7533 297.963 84.7533Z" fill="#B3BCCB"/>
<path d="M464.148 33.1792C463.982 33.1792 463.815 33.1393 463.662 33.0527L444.519 22.4859C444.252 22.3394 444.065 22.0729 444.012 21.7664C443.965 21.4599 444.058 21.1534 444.265 20.9269L463.408 0.319822C463.688 0.0200098 464.128 -0.0799309 464.509 0.0666441C464.889 0.219881 465.142 0.586315 465.142 0.999389V32.1732C465.142 32.5263 464.956 32.8528 464.649 33.0327C464.502 33.1326 464.322 33.1792 464.148 33.1792ZM446.606 21.3533L463.148 30.4809V3.54447L446.606 21.3533Z" fill="#B4BDC9"/>
<path d="M1.0005 205.558C0.78706 205.558 0.580289 205.492 0.400199 205.358C0.146739 205.172 0 204.872 0 204.559V175.997C0 175.617 0.213441 175.271 0.553611 175.104C0.893781 174.938 1.30065 174.971 1.6008 175.204L28.7277 195.685C29.0278 195.911 29.1746 196.291 29.1079 196.657C29.0412 197.024 28.7677 197.33 28.4075 197.437L1.28064 205.518C1.19393 205.545 1.09388 205.558 1.0005 205.558ZM2.001 178.002V203.213L25.9463 196.084L2.001 178.002Z" fill="#B4BDC9"/>
<path d="M83.7843 48.551C79.5288 48.551 76.0471 45.1198 76.0004 40.8625C75.9804 38.7838 76.7674 36.825 78.2215 35.3393C79.6755 33.8536 81.6232 33.0274 83.6976 33.0008C87.9597 32.9408 91.5215 36.3986 91.5681 40.6893C91.5882 42.768 90.8011 44.7268 89.347 46.2125C87.893 47.6982 85.9453 48.5311 83.871 48.551C83.8443 48.551 83.8176 48.551 83.7843 48.551ZM83.7242 35.0062C82.1768 35.0262 80.7361 35.6391 79.6555 36.7451C78.575 37.8511 77.988 39.3035 78.008 40.8492C78.0414 44.0339 80.6827 46.6123 83.8576 46.559C85.4051 46.539 86.8458 45.926 87.9263 44.82C89.0069 43.7141 89.5938 42.2616 89.5738 40.7159C89.5338 37.5313 86.9325 34.9795 83.7242 35.0062Z" fill="#B4BDC9"/>
<path d="M494.788 169.554C493.781 169.554 492.767 169.355 491.806 168.961C487.844 167.322 485.95 162.765 487.591 158.801C489.232 154.844 493.794 152.951 497.763 154.59C499.684 155.383 501.178 156.882 501.978 158.801C502.772 160.72 502.772 162.832 501.978 164.751C501.184 166.67 499.684 168.162 497.763 168.961C496.802 169.355 495.795 169.554 494.788 169.554ZM494.795 155.996C492.527 155.996 490.366 157.342 489.445 159.561C488.225 162.505 489.632 165.89 492.574 167.109C495.522 168.328 498.91 166.923 500.131 163.985C500.724 162.559 500.724 160.986 500.131 159.561C499.537 158.135 498.43 157.022 497.002 156.436C496.282 156.136 495.528 155.996 494.795 155.996Z" fill="#B4BDC9"/>
</svg>
